<svg width="120" height="120" viewBox="0 0 120 120" fill="none" xmlns="http://www.w3.org/2000/svg">
<rect width="120" height="120" fill="white"/>
<path d="M31 20H90C96.0751 20 101 24.9249 101 31V90C101 96.0751 96.0751 101 90 101H31C24.9249 101 20 96.0751 20 90V31L20.0146 30.4336C20.3094 24.6217 25.1148 20 31 20Z" stroke="#E700D0" stroke-width="2"/>
<g filter="url(#filter0_d_17_90)">
<path d="M88 60C88 75.464 75.464 88 60 88C44.536 88 32 75.464 32 60C32 44.536 44.536 32 60 32C75.464 32 88 44.536 88 60ZM40.4 60C40.4 70.8248 49.1752 79.6 60 79.6C70.8248 79.6 79.6 70.8248 79.6 60C79.6 49.1752 70.8248 40.4 60 40.4C49.1752 40.4 40.4 49.1752 40.4 60Z" fill="#E700D0"/>
</g>
<defs>
<filter id="filter0_d_17_90" x="28" y="32" width="64" height="65" filterUnits="userSpaceOnUse" color-interpolation-filters="sRGB">
<feFlood flood-opacity="0" result="BackgroundImageFix"/>
<feColorMatrix in="SourceAlpha" type="matrix" values="0 0 0 0 0 0 0 0 0 0 0 0 0 0 0 0 0 0 127 0" result="hardAlpha"/>
<feOffset dy="5"/>
<feGaussianBlur stdDeviation="2"/>
<feComposite in2="hardAlpha" operator="out"/>
<feColorMatrix type="matrix" values="0 0 0 0 1 0 0 0 0 0.320816 0 0 0 0 0.932082 0 0 0 0.25 0"/>
<feBlend mode="normal" in2="BackgroundImageFix" result="effect1_dropShadow_17_90"/>
<feBlend mode="normal" in="SourceGraphic" in2="effect1_dropShadow_17_90" result="shape"/>
</filter>
</defs>
</svg>
