<svg width="120" height="120" viewBox="0 0 120 120" fill="none" xmlns="http://www.w3.org/2000/svg">
<rect width="120" height="120" fill="white"/>
<g filter="url(#filter0_d_17_76)">
<path fill-rule="evenodd" clip-rule="evenodd" d="M85.0165 44.0802L76.6641 35.4641L59.8943 51.7208L43.7175 35.3695L35.1868 43.8092L51.2777 60.0736L35.0197 75.8342L43.3721 84.4503L59.7178 68.6047L75.9785 85.0407L84.5092 76.6011L68.3344 60.2519L85.0165 44.0802Z" fill="#96F8AC"/>
</g>
<path d="M31 20H90C96.0751 20 101 24.9249 101 31V90C101 96.0751 96.0751 101 90 101H31C24.9249 101 20 96.0751 20 90V31L20.0146 30.4336C20.3094 24.6217 25.1148 20 31 20Z" stroke="#96F8AC" stroke-width="2"/>
<defs>
<filter id="filter0_d_17_76" x="31.0195" y="35.3695" width="57.9971" height="57.6712" filterUnits="userSpaceOnUse" color-interpolation-filters="sRGB">
<feFlood flood-opacity="0" result="BackgroundImageFix"/>
<feColorMatrix in="SourceAlpha" type="matrix" values="0 0 0 0 0 0 0 0 0 0 0 0 0 0 0 0 0 0 127 0" result="hardAlpha"/>
<feOffset dy="4"/>
<feGaussianBlur stdDeviation="2"/>
<feComposite in2="hardAlpha" operator="out"/>
<feColorMatrix type="matrix" values="0 0 0 0 0.588037 0 0 0 0 0.974489 0 0 0 0 0.673056 0 0 0 1 0"/>
<feBlend mode="normal" in2="BackgroundImageFix" result="effect1_dropShadow_17_76"/>
<feBlend mode="normal" in="SourceGraphic" in2="effect1_dropShadow_17_76" result="shape"/>
</filter>
</defs>
</svg>
